# xmcd
#
# Track frame offsets:
#	150
#	19374
#	34400
#	49925
#	71040
#	88630
#	106081
#	123977
#	140846
#	154753
#	175098
#	190408
#	206840
#	224050
#
# Disc length: 3245 seconds
#
# Revision: 0
# Processed by: cddbd v1.4PL0 Copyright (c) Steve Scherf et al.
# Submitted via: dBpowerAMP V4.0
#
DISCID=da0cab0e
DTITLE=Tim McGraw - A Place In The Sun JR
DYEAR=1900
DGENRE=Country
TTITLE0=Trouble With Never, The
TTITLE1=Seventeen
TTITLE2=She'll Have You Back
TTITLE3=My Best Friend
TTITLE4=Somebody Must Be Prayin' For Me
TTITLE5=Senorita Margarita
TTITLE6=Some Things Never Change
TTITLE7=You Don't Love Me Anymore
TTITLE8=Something Like That
TTITLE9=Please Remember Me
TTITLE10=Carry On
TTITLE11=My Next Thirty Years
TTITLE12=Eyes Of A Woman
TTITLE13=A Place In The Sun
EXTD=
EXTT0=
EXTT1=
EXTT2=
EXTT3=
EXTT4=
EXTT5=
EXTT6=
EXTT7=
EXTT8=
EXTT9=
EXTT10=
EXTT11=
EXTT12=
EXTT13=
PLAYORDER=
